<svg width="256" height="256" viewBox="0 0 256 256" fill="none" xmlns="http://www.w3.org/2000/svg">
<rect width="256" height="256" rx="25" fill="#373737"/>
<path d="M127.62 103.928C174.906 103.928 213.239 88.9458 213.239 70.4641C213.239 51.9824 174.906 37 127.62 37C80.3332 37 42 51.9824 42 70.4641C42 88.9458 80.3332 103.928 127.62 103.928Z" fill="#E1E1E1"/>
<path d="M63.6992 151.747C84.2212 158.96 105.871 162.433 127.62 161.999C149.369 162.43 171.018 158.955 191.54 151.738C207.559 145.491 213.239 138.547 213.239 134.551V104C207.639 107.75 201.63 110.853 195.33 113.247C173.617 121.022 150.679 124.812 127.62 124.436C104.562 124.805 81.6262 121.021 59.9094 113.264C53.6056 110.87 47.5967 107.761 42 104V134.508C42 138.581 47.6977 145.491 63.6992 151.747ZM63.6992 209.368C70.949 212.133 78.4249 214.263 86.043 215.736C99.7418 218.386 113.667 219.69 127.62 219.629C141.572 219.693 155.497 218.392 169.196 215.745C176.814 214.272 184.29 212.141 191.54 209.377C207.559 203.129 213.239 196.185 213.239 192.189V163.056C208.61 165.842 203.744 168.214 198.698 170.146C175.889 178.222 151.813 182.131 127.62 181.688C103.424 182.118 79.3477 178.194 56.5406 170.103C51.4971 168.166 46.6319 165.794 42 163.013V192.172C42 196.177 47.6977 203.095 63.6992 209.368Z" fill="#E1E1E1"/>
<path d="M128.003 103.928C175.289 103.928 213.623 88.9458 213.623 70.4641C213.623 51.9824 175.289 37 128.003 37C128.006 70.4641 128.006 51.9824 128.006 70.4641C128.006 88.9458 127.995 70.4641 128.003 103.928Z" fill="#B3B3B3"/>
<path d="M128.003 161.999C149.752 162.43 171.402 158.955 191.923 151.738C207.942 145.491 213.623 138.547 213.623 134.551V104C208.022 107.75 202.014 110.853 195.713 113.247C174.001 121.022 151.063 124.812 128.003 124.436V161.999ZM128.002 219.629C128.002 219.629 128.003 219.629 128 219.629C128.003 219.629 128.005 219.629 128.003 219.629C141.955 219.693 155.881 218.392 169.58 215.745C177.198 214.272 184.674 212.141 191.923 209.377C207.942 203.129 213.623 196.185 213.623 192.189V163.056C208.993 165.842 204.128 168.214 199.082 170.146C176.272 178.222 152.196 182.131 128.003 181.688V219.629C128 219.629 128.002 219.629 128.002 219.629Z" fill="#B3B3B3"/>
</svg>
